<?xml version="1.0" encoding="utf-8"?>
<!-- Generator: Adobe Illustrator 24.0.3, SVG Export Plug-In . SVG Version: 6.00 Build 0)  -->
<svg version="1.1" id="Layer_1" xmlns="http://www.w3.org/2000/svg" xmlns:xlink="http://www.w3.org/1999/xlink" x="0px" y="0px"
	 viewBox="0 0 1500 302.5" style="enable-background:new 0 0 1500 302.5;" xml:space="preserve">
<style type="text/css">
	.st0{fill:#182C4F;}
	.st1{fill:#EBA41C;}
</style>
<g>
	<path class="st0" d="M346.5,187.3c-3.5,3.3-7.7,5-13.5,5c-7.8,0-11.9-3.1-15.1-6.9c-5.6-6.6-5.2-19.1-5.2-28.5
		c0-9.4-0.4-22,5.2-28.7c3.2-3.8,7.3-6.9,15.1-6.9c5.8,0,9.9,1.7,13.5,5c3.6,3.4,5.8,8.9,6.1,15.5h-13.8c-0.1-1.9-0.3-3.9-1.1-5.4
		c-0.8-1.7-2.1-2.6-4.7-2.6s-3.8,1.2-4.6,2.7c-1.7,3.2-1.9,11.9-1.9,20.3s0.2,17.1,1.9,20.3c0.8,1.6,2,2.7,4.6,2.7s4-1.1,4.8-2.7
		c0.8-1.5,1-3.4,1.1-5.4h13.8C352.4,178.4,350.1,183.9,346.5,187.3z"/>
	<path class="st0" d="M411,185.4c-3.2,3.8-7.5,6.9-15.3,6.9s-11.9-3.1-15.1-6.9c-5.6-6.6-5.2-19.2-5.2-28.6s-0.4-21.9,5.2-28.6
		c3.2-3.8,7.3-6.9,15.1-6.9s12.1,3.1,15.3,6.9c5.6,6.6,5.2,19.2,5.2,28.6S416.6,178.7,411,185.4z M400.5,136.5
		c-0.8-1.6-2.2-2.7-4.8-2.7s-3.8,1.2-4.6,2.7c-1.7,3.2-1.9,11.9-1.9,20.3s0.2,17.1,1.9,20.3c0.8,1.6,2,2.7,4.6,2.7s4-1.2,4.8-2.7
		c1.7-3.2,1.9-11.9,1.9-20.3S402.2,139.7,400.5,136.5z"/>
	<path class="st0" d="M468.8,191.5l-8.5-27h-4.6v27h-13.8v-69.4h19.8c15.1,0,19.3,7.9,19.3,21.2c0,7.4-1.2,14-7.9,18.2l10.1,30
		H468.8z M461.6,134.6h-5.8V152h5.8c5.3,0,5.6-4.8,5.6-8.8C467.2,139.3,466.9,134.6,461.6,134.6z"/>
	<path class="st0" d="M536.7,191.5L522,157.6v33.9h-13.8v-69.4h12.1l14.4,33.9v-33.9h13.8v69.4H536.7z"/>
	<path class="st0" d="M576.3,191.5v-69.4h32v12.5h-18.1v15.7h15.6v12.5h-15.6V179h18.1v12.5H576.3z"/>
	<path class="st0" d="M660.7,191.5l-8.5-27h-4.6v27h-13.8v-69.4h19.8c15.1,0,19.3,7.9,19.3,21.2c0,7.4-1.2,14-7.9,18.2l10.1,30
		H660.7z M653.5,134.6h-5.8V152h5.8c5.3,0,5.6-4.8,5.6-8.8C659,139.3,658.7,134.6,653.5,134.6z"/>
	<path class="st0" d="M732.5,187.1c-3.1,3-8.4,5.2-15.1,5.2c-6.8,0-11.9-1.9-15-5.1c-3.4-3.4-4.6-8.3-4.6-15.4h13.8
		c0,2.8,0.2,4.9,1.5,6.3c0.8,0.9,2.1,1.7,4.3,1.7s3.5-0.6,4.4-1.8c1-1.2,1.4-3,1.4-5.8c0-6.6-1.1-7.8-6-9.8l-8.8-3.6
		c-7-2.9-9.9-6.6-9.9-17.5c0-6.4,2-11.8,6.2-15.4c3.3-2.8,7.5-4.4,12.8-4.4c6.1,0,10.6,1.6,13.6,4.4c3.8,3.5,5.4,9.1,5.4,16.1h-13.8
		c0-2.4,0-4.7-1.2-6.2c-0.8-1.1-1.9-1.8-4-1.8c-1.9,0-3.2,0.8-4,1.9c-0.9,1.2-1.2,2.6-1.2,5c0,4.4,0.8,5.7,4.8,7.3l8.7,3.5
		c8.8,3.6,11.3,7.5,11.3,20.1C736.9,178.7,736.1,183.6,732.5,187.1z"/>
	<path class="st0" d="M784.8,134.6v56.9H771v-56.9h-11.7v-12.5h37.2v12.5H784.8z"/>
	<path class="st0" d="M853,185.4c-3.2,3.8-7.5,6.9-15.3,6.9c-7.8,0-11.9-3.1-15.1-6.9c-5.6-6.6-5.2-19.2-5.2-28.6
		s-0.4-21.9,5.2-28.6c3.2-3.8,7.3-6.9,15.1-6.9c7.8,0,12.1,3.1,15.3,6.9c5.6,6.6,5.2,19.2,5.2,28.6S858.5,178.7,853,185.4z
		 M842.4,136.5c-0.8-1.6-2.2-2.7-4.8-2.7c-2.5,0-3.8,1.2-4.6,2.7c-1.7,3.2-1.9,11.9-1.9,20.3s0.2,17.1,1.9,20.3
		c0.8,1.6,2,2.7,4.6,2.7c2.5,0,4-1.2,4.8-2.7c1.7-3.2,1.9-11.9,1.9-20.3S844.1,139.7,842.4,136.5z"/>
	<path class="st0" d="M912.4,191.5l-14.7-33.9v33.9h-13.8v-69.4h12.1l14.4,33.9v-33.9h13.8v69.4H912.4z"/>
	<path class="st0" d="M952,191.5v-69.4h32v12.5h-18.1v15.7h15.6v12.5h-15.6V179H984v12.5H952z"/>
	<path class="st0" d="M1077.7,186.9c-2.9,3-7.5,4.6-14.4,4.6h-20.1v-69.4h20.1c6.9,0,11.5,1.6,14.5,4.5c3.3,3.2,4.6,8.3,4.6,14.9
		c0,4.5-0.4,8.3-3.3,11.2c-0.9,0.9-1.9,1.7-3.2,2.3c1.3,0.7,2.2,1.6,3.1,2.4c3.2,3.6,3.4,8.8,3.4,12.7
		C1082.3,177.7,1081.2,183.3,1077.7,186.9z M1061.2,134.6h-4.2v14.8h4.2c5.5,0,7.3-2.2,7.3-7.4
		C1068.5,136.7,1066.7,134.6,1061.2,134.6z M1061.4,161.1h-4.4V179h4.4c5.6,0,7.1-2.6,7.1-9S1066.7,161.1,1061.4,161.1z"/>
	<path class="st0" d="M1142.8,186.5c-3.7,3.8-8.6,5.8-14.4,5.8s-10.7-1.9-14.4-5.8c-3.3-3.4-5.2-8.1-5.2-13.6v-50.8h13.8v51.5
		c0,4.5,2.6,6.2,5.8,6.2c3.1,0,5.8-1.8,5.8-6.2v-51.5h13.8v50.8C1148,178.5,1146.1,183.1,1142.8,186.5z"/>
	<path class="st0" d="M1175.3,191.5v-69.4h13.8v69.4H1175.3z"/>
	<path class="st0" d="M1216.9,191.5v-69.4h13.8V179h18.1v12.5H1216.9z"/>
	<path class="st0" d="M1308.4,184.8c-3.1,3.6-7.4,6.7-15.2,6.7h-19.6v-69.4h19.6c7.8,0,12.1,3.1,15.2,6.7c5.6,6.4,5.2,18.9,5.2,28
		S1314,178.4,1308.4,184.8z M1298.1,137.6c-0.9-1.8-2.6-3-5.2-3h-5.5V179h5.5c2.5,0,4.3-1.3,5.2-3c1.7-3.2,1.7-11.6,1.7-19.3
		C1299.8,149,1299.8,140.8,1298.1,137.6z"/>
	<path class="st0" d="M1339.3,191.5v-69.4h32v12.5h-18.1v15.7h15.6v12.5h-15.6V179h18.1v12.5H1339.3z"/>
	<path class="st0" d="M1423.8,191.5l-8.5-27h-4.6v27h-13.8v-69.4h19.8c15.1,0,19.3,7.9,19.3,21.2c0,7.4-1.2,14-7.9,18.2l10.1,30
		H1423.8z M1416.5,134.6h-5.8V152h5.8c5.3,0,5.6-4.8,5.6-8.8C1422.1,139.3,1421.8,134.6,1416.5,134.6z"/>
	<path class="st0" d="M1495.5,187.1c-3.1,3-8.4,5.2-15.1,5.2c-6.8,0-11.9-1.9-15-5.1c-3.4-3.4-4.6-8.3-4.6-15.4h13.8
		c0,2.8,0.2,4.9,1.5,6.3c0.8,0.9,2.1,1.7,4.3,1.7c2.1,0,3.5-0.6,4.4-1.8c1-1.2,1.4-3,1.4-5.8c0-6.6-1.1-7.8-6-9.8l-8.8-3.6
		c-7-2.9-9.9-6.6-9.9-17.5c0-6.4,2-11.8,6.2-15.4c3.3-2.8,7.5-4.4,12.8-4.4c6.1,0,10.6,1.6,13.6,4.4c3.8,3.5,5.4,9.1,5.4,16.1h-13.8
		c0-2.4,0-4.7-1.2-6.2c-0.8-1.1-1.9-1.8-4-1.8c-1.9,0-3.2,0.8-4,1.9c-0.9,1.2-1.2,2.6-1.2,5c0,4.4,0.8,5.7,4.8,7.3l8.7,3.5
		c8.8,3.6,11.3,7.5,11.3,20.1C1500,178.7,1499.1,183.6,1495.5,187.1z"/>
</g>
<g>
	<g>
		<polygon class="st1" points="192.8,191.5 131.7,156 70.6,191.5 131.7,227.1 		"/>
		<polygon class="st0" points="198.9,39.1 137.8,74.6 198.9,110.2 260.1,74.6 		"/>
		<polygon class="st0" points="64.4,39.1 3.3,74.6 64.4,110.2 125.6,74.6 		"/>
		<polygon class="st0" points="192.8,35.5 131.7,0 70.6,35.5 131.7,71.1 		"/>
	</g>
</g>
<g>
	<g>
		<polygon class="st0" points="61.1,263.3 0,227.7 0,156.8 61.1,192.4 		"/>
		<polygon class="st0" points="128.3,302.5 67.2,266.9 67.2,196 128.3,231.6 		"/>
		<polygon class="st1" points="135.1,79.8 196.2,115.4 196.2,186.3 135.1,150.7 		"/>
		<polygon class="st0" points="61.1,186.3 0,150.7 0,79.8 61.1,115.4 		"/>
	</g>
</g>
<g>
	<g>
		<polygon class="st1" points="67.2,186.3 128.3,150.7 128.3,79.8 67.2,115.4 		"/>
		<polygon class="st0" points="263.4,79.8 202.3,115.4 202.3,186.3 263.4,150.7 		"/>
		<polygon class="st0" points="263.4,156.8 202.3,192.4 202.3,263.3 263.4,227.7 		"/>
		<polygon class="st0" points="196.2,196 135.1,231.6 135.1,302.5 196.2,266.9 		"/>
	</g>
</g>
</svg>
