<svg xmlns="http://www.w3.org/2000/svg" width="40" height="36" fill="none" viewBox="0 0 40 36"><g clip-path="url(#a)"><path fill="#fff" d="M27.503 32.478h-15.28a1.524 1.524 0 1 0 0 3.049h15.28a1.524 1.524 0 1 0 0-3.049ZM38.2.474H1.528C.682.474 0 1.154 0 1.998v25.908c0 .844.682 1.524 1.528 1.524h36.67c.846 0 1.529-.68 1.529-1.524V1.998c0-.844-.683-1.524-1.528-1.524ZM19.863 27.525a1.146 1.146 0 0 1-1.145-1.143 1.146 1.146 0 0 1 2.291 0c0 .63-.514 1.143-1.146 1.143Zm16.808-4.19H3.056V3.521H36.67v19.812Z"/></g><defs><clipPath id="a"><path fill="#fff" d="M0 .474h39.727v35.053H0z"/></clipPath></defs></svg>