<svg xmlns="http://www.w3.org/2000/svg" width="100" height="54" fill="none" viewBox="0 0 100 54"><path fill="#001E45" d="M59.288 16.852V6.13L50 .767 40.711 6.13v10.724l9.288 5.361 9.29-5.361Z"/><path fill="#87C4CC" d="M59.288 16.852V6.13L50 .767 40.711 6.13v10.724l9.288 5.361 9.29-5.361Z"/><path fill="#0CC2ED" d="M43.736 4.394a7.231 7.231 0 0 0 12.528 0L49.999.767l-6.267 3.619.004.008ZM50 14.982a7.26 7.26 0 0 0-6.264 3.617L50 22.214l6.265-3.615a7.26 7.26 0 0 0-6.265-3.617Z"/><path fill="#001E45" d="M56.84 4.723a7.896 7.896 0 0 1-10.79 2.89 7.896 7.896 0 0 1-2.89-2.89l-2.45 1.406v10.723l2.45 1.415a7.895 7.895 0 0 1 13.68 0l2.45-1.415V6.13l-2.45-1.406Z"/><path fill="#fff" d="M59.62 5.553 50.332.193 49.999 0l-.332.192-9.273 5.353-.015.008-.333.191v11.493l.179.104.153.087 9.289 5.362.332.193.333-.193 6.264-3.616.577-.331.356-.204 2.095-1.21.333-.192V5.745l-.337-.192Zm-2.78 12.714a7.896 7.896 0 0 0-13.68 0l-2.45-1.415V6.13l2.45-1.406a7.896 7.896 0 0 0 13.68 0l2.45 1.406v10.723l-2.45 1.415ZM50 .767l6.266 3.619a7.231 7.231 0 0 1-12.527 0l6.26-3.619Zm0 21.447L43.735 18.6a7.23 7.23 0 0 1 9.88-2.648 7.23 7.23 0 0 1 2.648 2.648l-6.265 3.615Z"/><path fill="#fff" d="m57.788 9.603-6.759 1.3 2.252 1.3 4.507-2.6ZM42.212 9.603l6.759 1.3-2.253 1.3-4.506-2.6ZM54.507 16.686l-6.758 1.3 2.253 1.3 4.505-2.6ZM7.755 28.761c0-.873-.026-1.852-.237-2.612-.21-.721-.538-1.225-1.05-1.21-.84.056-1.112 1.138-1.115 2.73 0 .927.327 1.872.805 2.87.477.997 1.104 2.01 1.731 3.08.746 1.278 1.491 2.572 2.055 3.833.564 1.26.95 2.561.95 3.984 0 1.743-.25 3.41-.941 4.75-.692 1.34-1.799 2.337-3.557 2.698-2.055.424-3.207-.287-3.865-1.67-.658-1.384-.803-3.377-.803-5.47 1.053-.296 2.107-.584 3.162-.864 0 1.15.026 2.3.264 3.11.207.854.563 1.374 1.248 1.255.95-.17 1.316-1.466 1.321-3.174 0-.871-.356-1.838-.831-2.837-.269-.475-.536-.993-.832-1.51a90.151 90.151 0 0 1-2.03-3.523 16.115 16.115 0 0 1-1.584-4.156 9.079 9.079 0 0 1-.269-2.22c0-1.516.27-3.162.962-4.415.692-1.217 1.746-2.073 3.28-2.108 1.955-.033 3.095.943 3.723 2.325.627 1.425.8 3.152.795 4.612-1.06.175-2.12.349-3.182.522ZM20.193 41.647a7.524 7.524 0 0 1-.61 2.798 1.521 1.521 0 0 0 1.172.644l-.014 2.802c-1.663.238-2.51-.422-3.025-1.306a4.75 4.75 0 0 1-1.475.505c-.982.154-1.745 0-2.288-.423-.543-.387-.894-.936-1.138-1.537-.296-.687-.456-1.53-.475-2.486l.051-13.88a7.47 7.47 0 0 1 .501-2.549c.25-.647.607-1.294 1.156-1.781.549-.487 1.316-.813 2.302-.826.986-.013 1.722.288 2.266.741.52.45.922 1.021 1.17 1.663.31.763.472 1.578.48 2.402l-.073 13.233Zm-2.895-13.114c0-.621-.106-1.052-.377-1.417a.766.766 0 0 0-.6-.229c-.52.018-.768.466-.88.879a2.79 2.79 0 0 0-.112.854l-.059 13.62c0 .661.132 1.083.403 1.39a.637.637 0 0 0 .573.172c.519-.07.766-.474.877-.957.088-.275.128-.563.12-.852.016-4.487.034-8.973.055-13.46ZM30.183 23.807l-.077 16.923a6.532 6.532 0 0 1-.505 2.375 4.64 4.64 0 0 1-1.188 1.69c-.55.523-1.293.864-2.28.973-.987.11-1.753-.069-2.299-.485a3.384 3.384 0 0 1-1.141-1.491 6.143 6.143 0 0 1-.481-2.363L22.3 23.81h2.955L25.17 41.14c0 .627.131 1.03.405 1.331a.684.684 0 0 0 .573.182c.522-.05.77-.428.882-.88.087-.26.127-.534.118-.808l.082-17.154 2.953-.003ZM31.43 45.02c1.048-7.202 2.092-14.16 3.133-21.213h3.614c.992 6.972 1.989 13.72 2.99 20.607-.963.04-1.926.085-2.89.136l-.537-4.246c-.95.043-1.903.091-2.858.145a7375.08 7375.08 0 0 1-.565 4.346c-.962.07-1.925.144-2.887.225Zm5.08-14.549-.08-.541h-.164c-.029.181-.056.363-.084.545l-.875 6.677c.677-.03 1.354-.06 2.032-.085l-.828-6.596ZM47.859 44.248l-1.535-8.698-.797.01-.01 8.724c-.992.02-1.982.046-2.97.08l.043-20.545 2.957-.009c3.532-.006 5.04 1.84 5.04 5.743 0 2.051-.521 3.902-1.647 4.691l1.9 10c-.995-.006-1.989-.005-2.981.004Zm-2.327-11.503c.412 0 .961-.065 1.4-.462.44-.396.797-1.156.799-2.612 0-1.456-.357-2.247-.794-2.639-.437-.392-.986-.418-1.397-.417l-.008 6.13ZM52.472 23.811h6.764c0 1.048.006 1.9.008 2.948a750.612 750.612 0 0 0-3.81-.031c0 1.812.004 3.624.01 5.437.914.01 1.828.023 2.743.04 0 1.113.003 2.225.008 3.336-.915-.02-1.83-.037-2.747-.052 0 1.9.003 3.796.008 5.689 1.276.028 2.55.065 3.825.11 0 1.049.003 2.097.008 3.145a224.053 224.053 0 0 0-6.802-.182l-.015-20.44ZM66.81 34.727a444.25 444.25 0 0 0-2.533-.102l.037 10.077c-1.088-.071-2.177-.133-3.266-.188l-.066-22.959h3.247l.036 9.573c.843.022 1.687.047 2.531.075l-.04-9.646h3.248l.108 23.593c-1.086-.099-2.173-.19-3.26-.273l-.042-10.15ZM72.312 23.811h6.76c0 1.127.012 2.232.017 3.359-1.267-.04-2.534-.078-3.801-.112l.028 5.766c.914.05 1.827.102 2.738.158l.018 3.574c-.912-.072-1.823-.14-2.732-.206l.03 6.035c1.267.126 2.534.263 3.8.41l.016 3.38a222.51 222.51 0 0 0-6.77-.797l-.104-21.567ZM86.09 47.208c-.523-3.363-1.046-6.692-1.57-9.988l-.792-.076.043 9.693c-.982-.152-1.965-.298-2.95-.437l-.106-22.589h2.955c3.53.038 5.041 2.47 5.057 6.973.008 2.36-.504 4.448-1.62 5.232.643 3.85 1.283 7.75 1.922 11.7-.978-.176-1.958-.345-2.94-.508Zm-2.376-13.19c.41.03.956.011 1.392-.396.436-.408.787-1.236.78-2.886-.008-1.65-.365-2.553-.805-3.012-.44-.458-.987-.51-1.397-.523l.03 6.816ZM98.272 44.354c-.026 1.034-.19 1.938-.486 2.672a3.516 3.516 0 0 1-1.163 1.612c-.54.434-1.27.58-2.246.377-.977-.203-1.736-.655-2.28-1.286a5.735 5.735 0 0 1-1.144-1.985 8.43 8.43 0 0 1-.498-2.697l-.042-14.266a7.429 7.429 0 0 1 .484-2.564c.244-.647.593-1.293 1.143-1.78.55-.489 1.307-.804 2.295-.786.989.018 1.724.37 2.27.898a4.95 4.95 0 0 1 1.176 1.927c.312.886.478 1.817.49 2.757v15.12Zm-2.945-15.297c0-.677-.11-1.158-.385-1.576a.807.807 0 0 0-.6-.297c-.52-.023-.764.435-.873.863-.08.292-.117.594-.108.896l.03 14.567c0 .701.138 1.188.41 1.606a.882.882 0 0 0 .57.37c.516.094.759-.265.867-.755.085-.29.121-.592.107-.894l-.018-14.78ZM97.546 24.877v-.007a1.215 1.215 0 0 1 2.43-.008v.008a1.214 1.214 0 0 1-2.43.007Zm2.205-.007a.99.99 0 1 0-1.98 0v.005a.99.99 0 1 0 1.98-.005Zm-1.452-.629h.526a.503.503 0 0 1 .368.13.356.356 0 0 1 .1.26v.006a.371.371 0 0 1-.258.37l.291.425h-.306l-.254-.383h-.207v.384h-.263l.003-1.192Zm.526.579c.133 0 .205-.072.205-.171v-.006c0-.119-.08-.174-.21-.174h-.257v.35h.262Z"/></svg>